<svg width="20" height="20" viewBox="0 0 20 20" fill="none" xmlns="http://www.w3.org/2000/svg">
<path fill-rule="evenodd" clip-rule="evenodd" d="M4.33333 3C4.68696 3 5.02609 3.14048 5.27614 3.39052C5.52619 3.64057 5.66667 3.97971 5.66667 4.33333C5.66667 4.68696 5.52619 5.02609 5.27614 5.27614C5.02609 5.52619 4.68696 5.66667 4.33333 5.66667C3.97971 5.66667 3.64057 5.52619 3.39052 5.27614C3.14048 5.02609 3 4.68696 3 4.33333C3 3.97971 3.14048 3.64057 3.39052 3.39052C3.64057 3.14048 3.97971 3 4.33333 3ZM9.66667 3C10.0203 3 10.3594 3.14048 10.6095 3.39052C10.8595 3.64057 11 3.97971 11 4.33333C11 4.68696 10.8595 5.02609 10.6095 5.27614C10.3594 5.52619 10.0203 5.66667 9.66667 5.66667C9.31305 5.66667 8.97391 5.52619 8.72386 5.27614C8.47381 5.02609 8.33333 4.68696 8.33333 4.33333C8.33333 3.97971 8.47381 3.64057 8.72386 3.39052C8.97391 3.14048 9.31305 3 9.66667 3ZM16.3333 4.33333C16.3333 3.97971 16.1929 3.64057 15.9428 3.39052C15.6928 3.14048 15.3536 3 15 3C14.6464 3 14.3072 3.14048 14.0572 3.39052C13.8071 3.64057 13.6667 3.97971 13.6667 4.33333C13.6667 4.68696 13.8071 5.02609 14.0572 5.27614C14.3072 5.52619 14.6464 5.66667 15 5.66667C15.3536 5.66667 15.6928 5.52619 15.9428 5.27614C16.1929 5.02609 16.3333 4.68696 16.3333 4.33333ZM4.33333 8.33333C4.68696 8.33333 5.02609 8.47381 5.27614 8.72386C5.52619 8.97391 5.66667 9.31305 5.66667 9.66667C5.66667 10.0203 5.52619 10.3594 5.27614 10.6095C5.02609 10.8595 4.68696 11 4.33333 11C3.97971 11 3.64057 10.8595 3.39052 10.6095C3.14048 10.3594 3 10.0203 3 9.66667C3 9.31305 3.14048 8.97391 3.39052 8.72386C3.64057 8.47381 3.97971 8.33333 4.33333 8.33333ZM11 9.66667C11 9.31305 10.8595 8.97391 10.6095 8.72386C10.3594 8.47381 10.0203 8.33333 9.66667 8.33333C9.31305 8.33333 8.97391 8.47381 8.72386 8.72386C8.47381 8.97391 8.33333 9.31305 8.33333 9.66667C8.33333 10.0203 8.47381 10.3594 8.72386 10.6095C8.97391 10.8595 9.31305 11 9.66667 11C10.0203 11 10.3594 10.8595 10.6095 10.6095C10.8595 10.3594 11 10.0203 11 9.66667ZM15 8.33333C15.3536 8.33333 15.6928 8.47381 15.9428 8.72386C16.1929 8.97391 16.3333 9.31305 16.3333 9.66667C16.3333 10.0203 16.1929 10.3594 15.9428 10.6095C15.6928 10.8595 15.3536 11 15 11C14.6464 11 14.3072 10.8595 14.0572 10.6095C13.8071 10.3594 13.6667 10.0203 13.6667 9.66667C13.6667 9.31305 13.8071 8.97391 14.0572 8.72386C14.3072 8.47381 14.6464 8.33333 15 8.33333ZM5.66667 15C5.66667 14.6464 5.52619 14.3072 5.27614 14.0572C5.02609 13.8071 4.68696 13.6667 4.33333 13.6667C3.97971 13.6667 3.64057 13.8071 3.39052 14.0572C3.14048 14.3072 3 14.6464 3 15C3 15.3536 3.14048 15.6928 3.39052 15.9428C3.64057 16.1929 3.97971 16.3333 4.33333 16.3333C4.68696 16.3333 5.02609 16.1929 5.27614 15.9428C5.52619 15.6928 5.66667 15.3536 5.66667 15ZM9.66667 13.6667C10.0203 13.6667 10.3594 13.8071 10.6095 14.0572C10.8595 14.3072 11 14.6464 11 15C11 15.3536 10.8595 15.6928 10.6095 15.9428C10.3594 16.1929 10.0203 16.3333 9.66667 16.3333C9.31305 16.3333 8.97391 16.1929 8.72386 15.9428C8.47381 15.6928 8.33333 15.3536 8.33333 15C8.33333 14.6464 8.47381 14.3072 8.72386 14.0572C8.97391 13.8071 9.31305 13.6667 9.66667 13.6667ZM16.3333 15C16.3333 14.6464 16.1929 14.3072 15.9428 14.0572C15.6928 13.8071 15.3536 13.6667 15 13.6667C14.6464 13.6667 14.3072 13.8071 14.0572 14.0572C13.8071 14.3072 13.6667 14.6464 13.6667 15C13.6667 15.3536 13.8071 15.6928 14.0572 15.9428C14.3072 16.1929 14.6464 16.3333 15 16.3333C15.3536 16.3333 15.6928 16.1929 15.9428 15.9428C16.1929 15.6928 16.3333 15.3536 16.3333 15Z" fill="#222222"/>
</svg>
