<svg width="22" height="30" viewBox="0 0 22 30" fill="none" xmlns="http://www.w3.org/2000/svg">
<path d="M10.9693 0.506836C5.38927 0.506836 0.855469 5.04048 0.855469 10.6207C0.855469 12.1028 1.20426 13.6288 1.85806 14.9801C2.72986 17.1163 10.0102 28.5379 10.3153 29.0174C10.4461 29.2355 10.7076 29.3662 10.9691 29.3662C11.2306 29.3662 11.4922 29.2355 11.6229 29.0174C11.9282 28.5379 19.2084 17.0726 20.1674 14.9801C20.8212 13.5849 21.17 12.1028 21.17 10.5772C21.0833 5.08415 16.5494 0.506914 10.9689 0.506914L10.9693 0.506836ZM10.9258 14.457C8.8334 14.457 7.17674 12.7568 7.17674 10.7079C7.22022 8.61544 8.92035 6.91526 10.9258 6.91526C13.0183 6.91526 14.6749 8.61544 14.6749 10.6644C14.6749 12.7568 13.0183 14.457 10.9258 14.457Z" fill="#1C7EDF"/>
</svg>
