<svg width="24" height="24" viewBox="0 0 24 24" fill="none" xmlns="http://www.w3.org/2000/svg">
<circle cx="12" cy="12" r="9" stroke="#222222" stroke-width="1.5" stroke-linejoin="round"/>
<path d="M5.99023 19C5.99023 19.4142 6.32602 19.75 6.74023 19.75C7.15445 19.75 7.49023 19.4142 7.49023 19H5.99023ZM16.5096 19C16.5096 19.4142 16.8454 19.75 17.2596 19.75C17.6739 19.75 18.0096 19.4142 18.0096 19H16.5096ZM7.49023 18C7.49023 17.4039 7.65987 16.9962 7.901 16.6977C8.15154 16.3876 8.52063 16.1454 8.98925 15.9638C9.94551 15.5931 11.1366 15.5405 11.9999 15.5405V14.0405C11.1249 14.0405 9.68614 14.0849 8.44714 14.5652C7.81813 14.809 7.19824 15.1807 6.73421 15.7551C6.26076 16.3411 5.99023 17.0884 5.99023 18H7.49023ZM11.9999 15.5405C12.8633 15.5405 14.0544 15.5931 15.0106 15.9638C15.4792 16.1454 15.8483 16.3876 16.0989 16.6977C16.34 16.9962 16.5096 17.4039 16.5096 18H18.0096C18.0096 17.0884 17.7391 16.3411 17.2657 15.7551C16.8016 15.1807 16.1817 14.809 15.5527 14.5652C14.3137 14.0849 12.875 14.0405 11.9999 14.0405V15.5405ZM5.99023 18V19H7.49023V18H5.99023ZM16.5096 18V19H18.0096V18H16.5096Z" fill="#222222"/>
<circle cx="12.0001" cy="9.49789" r="2.74789" stroke="#222222" stroke-width="1.5"/>
</svg>
