<!-- icon666.com - MILLIONS vector ICONS FREE --><svg id="Layer_3" viewBox="0 0 64 64" xmlns="http://www.w3.org/2000/svg" data-name="Layer 3"><path d="m32 2a25 25 0 0 0 -3.576 49.741l3.576 6.259 3.576-6.259a25 25 0 0 0 -3.576-49.741zm0 44a19 19 0 1 1 19-19 19 19 0 0 1 -19 19z" fill="#f4b2b0"></path><g fill="#b3404a"><path d="m32 1a26 26 0 0 0 -4.2 51.657l3.332 5.843a1 1 0 0 0 1.736 0l3.337-5.839a26 26 0 0 0 -4.205-51.661zm3.434 49.751a1 1 0 0 0 -.726.494l-2.708 4.739-2.708-4.739a1 1 0 0 0 -.726-.494 24 24 0 1 1 6.868 0z"></path><path d="m32 7a20 20 0 1 0 20 20 20.023 20.023 0 0 0 -20-20zm0 38a18 18 0 1 1 18-18 18.021 18.021 0 0 1 -18 18z"></path><path d="m21 61h22v2h-22z"></path><path d="m41 18h-6v-6h-2v2h-2v-2h-2v6h-6a1 1 0 0 0 -1 1v4a1 1 0 0 0 1 1h1v14h-2v2h20v-2h-2v-14h1a1 1 0 0 0 1-1v-4a1 1 0 0 0 -1-1zm-10-2h2v2h-2zm7 22h-12v-14h12zm2-16h-16v-2h16z"></path><path d="m28 26h3v2h-3z"></path><path d="m28 30h3v2h-3z"></path><path d="m28 34h3v2h-3z"></path><path d="m33 26h3v2h-3z"></path><path d="m33 30h3v2h-3z"></path><path d="m33 34h3v2h-3z"></path></g></svg>