<?xml version="1.0" encoding="UTF-8"?>
<svg xmlns="http://www.w3.org/2000/svg" xmlns:xlink="http://www.w3.org/1999/xlink" width="2px" height="2px" viewBox="0 0 2 2" version="1.1">
<g id="surface1">
<path style=" stroke:none;fill-rule:nonzero;fill:rgb(0%,0%,0%);fill-opacity:1;" d="M 0.929688 0.00390625 C 0.488281 0.0429688 0.152344 0.394531 0.132812 0.835938 C 0.125 1.070312 0.210938 1.296875 0.375 1.464844 C 0.445312 1.539062 0.519531 1.59375 0.613281 1.640625 L 0.664062 1.667969 L 0.800781 1.824219 C 0.953125 2 0.953125 2 1 2 C 1.046875 2 1.046875 1.996094 1.199219 1.824219 L 1.335938 1.667969 L 1.386719 1.640625 C 1.476562 1.59375 1.550781 1.542969 1.621094 1.46875 C 1.886719 1.195312 1.941406 0.78125 1.757812 0.445312 C 1.71875 0.371094 1.671875 0.3125 1.601562 0.246094 C 1.472656 0.117188 1.316406 0.0390625 1.128906 0.0078125 C 1.09375 0.00390625 0.964844 0 0.929688 0.00390625 Z M 1.117188 0.078125 C 1.398438 0.117188 1.640625 0.308594 1.742188 0.570312 C 1.804688 0.726562 1.816406 0.902344 1.773438 1.0625 C 1.714844 1.296875 1.558594 1.488281 1.335938 1.59375 L 1.296875 1.613281 L 1.15625 1.769531 C 1.066406 1.875 1.015625 1.929688 1.007812 1.929688 C 1.003906 1.933594 0.996094 1.933594 0.992188 1.929688 C 0.984375 1.929688 0.933594 1.875 0.84375 1.769531 L 0.703125 1.613281 L 0.652344 1.585938 C 0.308594 1.417969 0.132812 1.042969 0.226562 0.671875 C 0.296875 0.382812 0.527344 0.15625 0.8125 0.0898438 C 0.839844 0.0820312 0.878906 0.078125 0.898438 0.0742188 C 0.917969 0.0703125 0.941406 0.0703125 0.945312 0.0703125 C 0.96875 0.0664062 1.082031 0.0703125 1.117188 0.078125 Z M 1.117188 0.078125 "/>
<path style=" stroke:none;fill-rule:nonzero;fill:rgb(0%,0%,0%);fill-opacity:1;" d="M 0.898438 0.175781 C 0.753906 0.195312 0.621094 0.261719 0.515625 0.363281 C 0.414062 0.457031 0.34375 0.585938 0.3125 0.730469 C 0.304688 0.773438 0.304688 0.789062 0.304688 0.863281 C 0.304688 0.957031 0.308594 0.992188 0.332031 1.070312 C 0.398438 1.300781 0.585938 1.480469 0.820312 1.542969 C 0.949219 1.578125 1.09375 1.574219 1.21875 1.53125 C 1.261719 1.515625 1.324219 1.488281 1.367188 1.460938 C 1.542969 1.355469 1.667969 1.164062 1.695312 0.957031 C 1.738281 0.605469 1.515625 0.273438 1.171875 0.1875 C 1.089844 0.167969 0.980469 0.164062 0.898438 0.175781 Z M 1.125 0.246094 C 1.414062 0.308594 1.621094 0.550781 1.632812 0.839844 C 1.644531 1.15625 1.429688 1.425781 1.117188 1.488281 C 1.054688 1.5 0.945312 1.5 0.882812 1.488281 C 0.625 1.4375 0.433594 1.246094 0.378906 0.988281 C 0.367188 0.929688 0.367188 0.808594 0.378906 0.746094 C 0.433594 0.480469 0.636719 0.285156 0.90625 0.242188 C 0.957031 0.230469 1.074219 0.234375 1.125 0.246094 Z M 1.125 0.246094 "/>
<path style=" stroke:none;fill-rule:nonzero;fill:rgb(0%,0%,0%);fill-opacity:1;" d="M 0.71875 0.46875 C 0.703125 0.476562 0.695312 0.496094 0.703125 0.511719 C 0.710938 0.527344 0.726562 0.535156 0.753906 0.535156 L 0.773438 0.535156 L 0.785156 0.5625 C 0.792969 0.578125 0.796875 0.589844 0.796875 0.59375 C 0.796875 0.59375 0.761719 0.644531 0.726562 0.691406 L 0.714844 0.710938 L 0.6875 0.703125 C 0.621094 0.691406 0.546875 0.714844 0.492188 0.765625 C 0.414062 0.851562 0.414062 0.984375 0.496094 1.070312 C 0.582031 1.152344 0.714844 1.15625 0.800781 1.070312 C 0.824219 1.046875 0.839844 1.019531 0.859375 0.976562 L 0.863281 0.964844 L 0.917969 0.964844 C 0.976562 0.964844 0.992188 0.960938 1.015625 0.941406 C 1.023438 0.933594 1.066406 0.875 1.117188 0.800781 C 1.164062 0.730469 1.207031 0.671875 1.207031 0.671875 C 1.210938 0.671875 1.234375 0.722656 1.234375 0.730469 C 1.234375 0.730469 1.226562 0.742188 1.214844 0.75 C 1.113281 0.828125 1.105469 0.980469 1.195312 1.070312 C 1.28125 1.15625 1.417969 1.160156 1.503906 1.074219 C 1.589844 0.988281 1.59375 0.859375 1.511719 0.773438 C 1.46875 0.722656 1.417969 0.703125 1.355469 0.703125 C 1.335938 0.703125 1.3125 0.703125 1.308594 0.703125 C 1.300781 0.707031 1.296875 0.703125 1.257812 0.621094 L 1.21875 0.535156 L 1.265625 0.535156 C 1.308594 0.53125 1.3125 0.53125 1.320312 0.523438 C 1.335938 0.511719 1.335938 0.488281 1.320312 0.476562 C 1.3125 0.46875 1.308594 0.46875 1.238281 0.464844 C 1.175781 0.464844 1.164062 0.464844 1.152344 0.472656 C 1.132812 0.480469 1.128906 0.496094 1.140625 0.523438 C 1.144531 0.53125 1.152344 0.546875 1.15625 0.554688 L 1.160156 0.566406 L 0.859375 0.566406 L 0.851562 0.550781 C 0.851562 0.542969 0.847656 0.539062 0.847656 0.539062 C 0.847656 0.535156 0.855469 0.535156 0.863281 0.535156 C 0.886719 0.53125 0.898438 0.519531 0.898438 0.5 C 0.898438 0.488281 0.894531 0.484375 0.886719 0.476562 C 0.878906 0.46875 0.875 0.46875 0.804688 0.464844 C 0.75 0.464844 0.730469 0.464844 0.71875 0.46875 Z M 1.144531 0.636719 C 1.144531 0.640625 1.109375 0.691406 1.070312 0.753906 C 0.996094 0.863281 0.996094 0.863281 0.988281 0.851562 C 0.984375 0.84375 0.898438 0.652344 0.890625 0.636719 C 0.890625 0.632812 0.917969 0.632812 1.019531 0.632812 C 1.121094 0.632812 1.148438 0.632812 1.144531 0.636719 Z M 0.882812 0.785156 C 0.910156 0.84375 0.933594 0.894531 0.933594 0.898438 C 0.933594 0.898438 0.917969 0.898438 0.898438 0.898438 L 0.867188 0.898438 L 0.859375 0.871094 C 0.851562 0.828125 0.832031 0.789062 0.796875 0.757812 L 0.777344 0.738281 L 0.804688 0.703125 C 0.820312 0.675781 0.832031 0.664062 0.832031 0.667969 C 0.835938 0.671875 0.859375 0.722656 0.882812 0.785156 Z M 0.667969 0.769531 C 0.671875 0.769531 0.664062 0.785156 0.640625 0.820312 C 0.613281 0.859375 0.609375 0.867188 0.605469 0.886719 C 0.605469 0.914062 0.605469 0.921875 0.621094 0.941406 C 0.640625 0.960938 0.652344 0.964844 0.726562 0.964844 C 0.777344 0.964844 0.789062 0.964844 0.789062 0.96875 C 0.789062 0.980469 0.757812 1.023438 0.742188 1.03125 C 0.65625 1.097656 0.539062 1.0625 0.507812 0.960938 C 0.488281 0.894531 0.519531 0.816406 0.578125 0.785156 C 0.609375 0.769531 0.65625 0.761719 0.667969 0.769531 Z M 1.382812 0.773438 C 1.433594 0.785156 1.464844 0.8125 1.484375 0.851562 C 1.53125 0.949219 1.464844 1.058594 1.359375 1.066406 C 1.328125 1.066406 1.296875 1.058594 1.269531 1.042969 C 1.242188 1.027344 1.226562 1.007812 1.214844 0.976562 C 1.203125 0.953125 1.203125 0.945312 1.203125 0.917969 C 1.203125 0.875 1.210938 0.847656 1.242188 0.816406 C 1.253906 0.804688 1.265625 0.792969 1.265625 0.792969 C 1.265625 0.796875 1.28125 0.832031 1.304688 0.875 C 1.324219 0.917969 1.34375 0.957031 1.347656 0.960938 C 1.355469 0.96875 1.378906 0.964844 1.390625 0.957031 C 1.40625 0.941406 1.402344 0.929688 1.363281 0.847656 C 1.339844 0.792969 1.328125 0.769531 1.332031 0.769531 C 1.339844 0.765625 1.359375 0.765625 1.382812 0.773438 Z M 0.757812 0.8125 C 0.773438 0.832031 0.789062 0.863281 0.796875 0.882812 L 0.796875 0.898438 L 0.734375 0.898438 C 0.675781 0.898438 0.671875 0.898438 0.671875 0.890625 C 0.675781 0.882812 0.734375 0.796875 0.738281 0.796875 C 0.738281 0.796875 0.746094 0.804688 0.757812 0.8125 Z M 0.757812 0.8125 "/>
</g>
</svg>
