<svg width="20" height="20" viewBox="0 0 20 20" fill="none" xmlns="http://www.w3.org/2000/svg">
<path d="M3.75 14.25C3.33579 14.25 3 14.5858 3 15C3 15.4142 3.33579 15.75 3.75 15.75V14.25ZM16.25 15.75C16.6642 15.75 17 15.4142 17 15C17 14.5858 16.6642 14.25 16.25 14.25V15.75ZM3.75 15.75H16.25V14.25H3.75V15.75Z" fill="#222222"/>
<path d="M3.75 9.25C3.33579 9.25 3 9.58579 3 10C3 10.4142 3.33579 10.75 3.75 10.75V9.25ZM16.25 10.75C16.6642 10.75 17 10.4142 17 10C17 9.58579 16.6642 9.25 16.25 9.25V10.75ZM3.75 10.75H16.25V9.25H3.75V10.75Z" fill="#222222"/>
<path d="M3.75 4.25C3.33579 4.25 3 4.58579 3 5C3 5.41421 3.33579 5.75 3.75 5.75V4.25ZM16.25 5.75C16.6642 5.75 17 5.41421 17 5C17 4.58579 16.6642 4.25 16.25 4.25V5.75ZM3.75 5.75H16.25V4.25H3.75V5.75Z" fill="#222222"/>
</svg>
