<svg width="116" height="116" viewBox="0 0 116 116" fill="none" xmlns="http://www.w3.org/2000/svg">
<path d="M29.0001 91.8341C39.6776 91.8341 48.3334 83.1783 48.3334 72.5008C48.3334 61.8233 39.6776 53.1675 29.0001 53.1675C18.3226 53.1675 9.66675 61.8233 9.66675 72.5008C9.66675 83.1783 18.3226 91.8341 29.0001 91.8341Z" stroke="#ADADAD" stroke-width="4.8125" stroke-linecap="round" stroke-linejoin="round"/>
<path d="M87.0001 91.8341C97.6776 91.8341 106.333 83.1783 106.333 72.5008C106.333 61.8233 97.6776 53.1675 87.0001 53.1675C76.3226 53.1675 67.6667 61.8233 67.6667 72.5008C67.6667 83.1783 76.3226 91.8341 87.0001 91.8341Z" stroke="#ADADAD" stroke-width="4.8125" stroke-linecap="round" stroke-linejoin="round"/>
<path d="M29 72.5008L38.6667 38.6675H74.9167" stroke="#ADADAD" stroke-width="4.8125" stroke-linecap="round" stroke-linejoin="round"/>
<path d="M29 24.1675H43.5" stroke="#ADADAD" stroke-width="4.8125" stroke-linecap="round" stroke-linejoin="round"/>
<path d="M87 72.5008L72.5 24.1675H91.8333" stroke="#ADADAD" stroke-width="4.8125" stroke-linecap="round" stroke-linejoin="round"/>
<path d="M91.8333 24.1675H94.2499C96.1727 24.1675 98.0168 24.9313 99.3764 26.291C100.736 27.6506 101.5 29.4947 101.5 31.4175C101.5 33.3403 100.736 35.1844 99.3764 36.544C98.0168 37.9036 96.1727 38.6675 94.2499 38.6675H91.8333" stroke="#ADADAD" stroke-width="4.8125" stroke-linecap="round" stroke-linejoin="round"/>
</svg>
