<svg width="126" height="36" viewBox="0 0 126 36" fill="none" xmlns="http://www.w3.org/2000/svg">
<rect width="36" height="36" rx="9" fill="#366AF3"/>
<path d="M11.0002 26.1666C13.5775 26.1666 15.6668 24.0772 15.6668 21.4999C15.6668 18.9226 13.5775 16.8333 11.0002 16.8333C8.42283 16.8333 6.3335 18.9226 6.3335 21.4999C6.3335 24.0772 8.42283 26.1666 11.0002 26.1666Z" stroke="white" stroke-width="1.75" stroke-linecap="round" stroke-linejoin="round"/>
<path d="M25.0002 26.1666C27.5775 26.1666 29.6668 24.0772 29.6668 21.4999C29.6668 18.9226 27.5775 16.8333 25.0002 16.8333C22.4228 16.8333 20.3335 18.9226 20.3335 21.4999C20.3335 24.0772 22.4228 26.1666 25.0002 26.1666Z" stroke="white" stroke-width="1.75" stroke-linecap="round" stroke-linejoin="round"/>
<path d="M11 21.4999L13.3333 13.3333H22.0833" stroke="white" stroke-width="1.75" stroke-linecap="round" stroke-linejoin="round"/>
<path d="M11 9.83325H14.5" stroke="white" stroke-width="1.75" stroke-linecap="round" stroke-linejoin="round"/>
<path d="M25 21.4999L21.5 9.83325H26.1667" stroke="white" stroke-width="1.75" stroke-linecap="round" stroke-linejoin="round"/>
<path d="M26.1665 9.83325H26.7498C27.214 9.83325 27.6591 10.0176 27.9873 10.3458C28.3155 10.674 28.4998 11.1191 28.4998 11.5833C28.4998 12.0474 28.3155 12.4925 27.9873 12.8207C27.6591 13.1489 27.214 13.3333 26.7498 13.3333H26.1665" stroke="white" stroke-width="1.75" stroke-linecap="round" stroke-linejoin="round"/>
<path d="M64.06 24H61.252L58.192 19.266H55.834V24H53.314V11.22H59.362C60.166 11.22 60.886 11.394 61.522 11.742C62.17 12.078 62.674 12.552 63.034 13.164C63.394 13.764 63.574 14.46 63.574 15.252C63.574 16.188 63.322 16.992 62.818 17.664C62.326 18.336 61.654 18.804 60.802 19.068L64.06 24ZM55.834 13.308V17.178H58.912C59.584 17.178 60.112 17.01 60.496 16.674C60.892 16.338 61.09 15.864 61.09 15.252C61.09 14.628 60.892 14.148 60.496 13.812C60.112 13.476 59.584 13.308 58.912 13.308H55.834ZM69.5122 22.308C70.0282 22.308 70.4662 22.218 70.8262 22.038C71.1982 21.858 71.6722 21.528 72.2482 21.048L73.5622 22.488C72.9142 23.148 72.2602 23.616 71.6002 23.892C70.9522 24.156 70.2382 24.288 69.4582 24.288C68.4742 24.288 67.6162 24.09 66.8842 23.694C66.1642 23.298 65.6062 22.734 65.2102 22.002C64.8262 21.27 64.6342 20.418 64.6342 19.446C64.6342 18.498 64.8202 17.652 65.1922 16.908C65.5642 16.152 66.0982 15.564 66.7942 15.144C67.4902 14.712 68.3122 14.496 69.2602 14.496C70.6402 14.496 71.7022 14.904 72.4462 15.72C73.1902 16.524 73.5622 17.646 73.5622 19.086C73.5622 19.434 73.5502 19.74 73.5262 20.004H66.9202C67.0282 20.712 67.2922 21.276 67.7122 21.696C68.1442 22.104 68.7442 22.308 69.5122 22.308ZM69.1882 16.332C68.5882 16.332 68.1022 16.512 67.7302 16.872C67.3582 17.22 67.1062 17.706 66.9742 18.33H71.2762C71.2282 17.706 71.0242 17.22 70.6642 16.872C70.3042 16.512 69.8122 16.332 69.1882 16.332ZM80.142 14.496C81.186 14.496 81.996 14.79 82.572 15.378C83.148 15.966 83.436 16.74 83.436 17.7V24H81.096V18.402C81.096 17.79 80.946 17.322 80.646 16.998C80.358 16.674 79.938 16.512 79.386 16.512C78.846 16.512 78.402 16.692 78.054 17.052C77.706 17.412 77.532 17.88 77.532 18.456V24H75.192V14.802H77.37V15.846C77.67 15.414 78.054 15.084 78.522 14.856C78.99 14.616 79.53 14.496 80.142 14.496ZM90.9326 23.874C90.2486 24.102 89.5586 24.216 88.8626 24.216C87.9506 24.216 87.2846 24.006 86.8646 23.586C86.4566 23.154 86.2526 22.5 86.2526 21.624V16.584H84.6146V14.802H86.2526V11.958H88.5926V14.802H90.7886V16.584H88.5926V21.336C88.5926 21.648 88.6646 21.87 88.8086 22.002C88.9526 22.122 89.1866 22.182 89.5106 22.182C89.8346 22.182 90.2186 22.128 90.6626 22.02L90.9326 23.874ZM97.4075 14.532C98.1875 14.532 98.8835 14.736 99.4955 15.144C100.12 15.54 100.606 16.104 100.954 16.836C101.302 17.568 101.476 18.42 101.476 19.392C101.476 20.364 101.296 21.222 100.936 21.966C100.588 22.698 100.102 23.262 99.4775 23.658C98.8655 24.054 98.1695 24.252 97.3895 24.252C96.0935 24.252 95.1215 23.778 94.4735 22.83V24H92.2955V11.22H94.6355V15.774C95.2955 14.946 96.2195 14.532 97.4075 14.532ZM96.8495 22.218C97.5215 22.218 98.0615 21.966 98.4695 21.462C98.8895 20.946 99.0995 20.256 99.0995 19.392C99.0995 18.528 98.8955 17.838 98.4875 17.322C98.0915 16.806 97.5515 16.548 96.8675 16.548C96.1835 16.548 95.6255 16.806 95.1935 17.322C94.7615 17.838 94.5455 18.528 94.5455 19.392C94.5455 20.268 94.7615 20.958 95.1935 21.462C95.6255 21.966 96.1775 22.218 96.8495 22.218ZM103.071 14.802H105.411V24H103.071V14.802ZM104.241 13.704C103.857 13.704 103.527 13.572 103.251 13.308C102.987 13.044 102.855 12.72 102.855 12.336C102.855 11.952 102.987 11.628 103.251 11.364C103.527 11.1 103.857 10.968 104.241 10.968C104.625 10.968 104.949 11.1 105.213 11.364C105.489 11.628 105.627 11.952 105.627 12.336C105.627 12.72 105.489 13.044 105.213 13.308C104.949 13.572 104.625 13.704 104.241 13.704ZM116.321 24H113.711L111.119 19.806L109.805 21.138V24H107.465V11.22H109.805V18.546L113.333 14.802H116.141L112.757 18.294L116.321 24ZM121.262 22.308C121.778 22.308 122.216 22.218 122.576 22.038C122.948 21.858 123.422 21.528 123.998 21.048L125.312 22.488C124.664 23.148 124.01 23.616 123.35 23.892C122.702 24.156 121.988 24.288 121.208 24.288C120.224 24.288 119.366 24.09 118.634 23.694C117.914 23.298 117.356 22.734 116.96 22.002C116.576 21.27 116.384 20.418 116.384 19.446C116.384 18.498 116.57 17.652 116.942 16.908C117.314 16.152 117.848 15.564 118.544 15.144C119.24 14.712 120.062 14.496 121.01 14.496C122.39 14.496 123.452 14.904 124.196 15.72C124.94 16.524 125.312 17.646 125.312 19.086C125.312 19.434 125.3 19.74 125.276 20.004H118.67C118.778 20.712 119.042 21.276 119.462 21.696C119.894 22.104 120.494 22.308 121.262 22.308ZM120.938 16.332C120.338 16.332 119.852 16.512 119.48 16.872C119.108 17.22 118.856 17.706 118.724 18.33H123.026C122.978 17.706 122.774 17.22 122.414 16.872C122.054 16.512 121.562 16.332 120.938 16.332Z"/>
</svg>
