<svg width="45" height="12" viewBox="0 0 45 12" fill="none" xmlns="http://www.w3.org/2000/svg">
<path d="M7.1875 6.91895C7.1875 7.61621 6.98926 8.14941 6.59277 8.51855C6.20085 8.88314 5.64486 9.06543 4.9248 9.06543C4.20931 9.06543 3.63509 8.82617 3.20215 8.34766C2.77376 7.86458 2.55957 7.20833 2.55957 6.37891V5.62695C2.55957 4.82487 2.77604 4.18457 3.20898 3.70605C3.64648 3.22298 4.21842 2.98145 4.9248 2.98145C5.65397 2.98145 6.21452 3.16829 6.60645 3.54199C6.99837 3.91569 7.19434 4.44206 7.19434 5.12109H6.19629C6.19629 4.66992 6.08691 4.34863 5.86816 4.15723C5.65397 3.96126 5.33952 3.86328 4.9248 3.86328C4.49642 3.86328 4.15918 4.02051 3.91309 4.33496C3.66699 4.64941 3.54395 5.08691 3.54395 5.64746V6.41992C3.54395 6.9668 3.66699 7.39746 3.91309 7.71191C4.15918 8.02637 4.49642 8.18359 4.9248 8.18359C5.34408 8.18359 5.65853 8.08789 5.86816 7.89648C6.08236 7.70508 6.18945 7.37923 6.18945 6.91895H7.1875ZM0.946289 6.0166C0.946289 6.80046 1.12858 7.52734 1.49316 8.19727C1.85775 8.86263 2.35221 9.38444 2.97656 9.7627C3.60547 10.141 4.28451 10.3301 5.01367 10.3301C5.74284 10.3301 6.4196 10.141 7.04395 9.7627C7.66829 9.38444 8.16276 8.86263 8.52734 8.19727C8.89193 7.52734 9.07422 6.80046 9.07422 6.0166C9.07422 5.24186 8.89421 4.52409 8.53418 3.86328C8.17415 3.20247 7.67969 2.68294 7.05078 2.30469C6.42643 1.92188 5.7474 1.73047 5.01367 1.73047C4.28451 1.73047 3.60547 1.9196 2.97656 2.29785C2.34766 2.67155 1.85091 3.19108 1.48633 3.85645C1.1263 4.52181 0.946289 5.24186 0.946289 6.0166ZM0.160156 6.0166C0.160156 5.09603 0.37207 4.24154 0.795898 3.45312C1.22428 2.66471 1.81445 2.04492 2.56641 1.59375C3.32292 1.13802 4.13867 0.910156 5.01367 0.910156C5.88867 0.910156 6.70215 1.13802 7.4541 1.59375C8.20605 2.04492 8.79395 2.66471 9.21777 3.45312C9.64616 4.24154 9.86035 5.09603 9.86035 6.0166C9.86035 6.91439 9.65527 7.75521 9.24512 8.53906C8.83496 9.32292 8.25163 9.9541 7.49512 10.4326C6.74316 10.9066 5.91602 11.1436 5.01367 11.1436C4.11589 11.1436 3.28874 10.9089 2.53223 10.4395C1.78027 9.96549 1.19694 9.33659 0.782227 8.55273C0.367513 7.76888 0.160156 6.9235 0.160156 6.0166ZM21.3652 11H14.8438V10.0908L18.2891 6.2627C18.7995 5.68392 19.1504 5.21452 19.3418 4.85449C19.5378 4.48991 19.6357 4.11393 19.6357 3.72656C19.6357 3.20703 19.4785 2.78092 19.1641 2.44824C18.8496 2.11556 18.4303 1.94922 17.9062 1.94922C17.2773 1.94922 16.7874 2.12923 16.4365 2.48926C16.0902 2.84473 15.917 3.34147 15.917 3.97949H14.6523C14.6523 3.06348 14.9463 2.32292 15.5342 1.75781C16.1266 1.19271 16.9173 0.910156 17.9062 0.910156C18.8314 0.910156 19.5628 1.15397 20.1006 1.6416C20.6383 2.12467 20.9072 2.76953 20.9072 3.57617C20.9072 4.55599 20.2829 5.72266 19.0342 7.07617L16.3682 9.96777H21.3652V11ZM28.9463 6.75488C28.9463 8.236 28.6934 9.33659 28.1875 10.0566C27.6816 10.7767 26.891 11.1367 25.8154 11.1367C24.7536 11.1367 23.9674 10.7858 23.457 10.084C22.9466 9.3776 22.6823 8.32487 22.6641 6.92578V5.2373C22.6641 3.77441 22.917 2.6875 23.4229 1.97656C23.9287 1.26562 24.7217 0.910156 25.8018 0.910156C26.8727 0.910156 27.6611 1.25423 28.167 1.94238C28.6729 2.62598 28.9326 3.68327 28.9463 5.11426V6.75488ZM27.6816 5.02539C27.6816 3.95443 27.5312 3.17513 27.2305 2.6875C26.9297 2.19531 26.4535 1.94922 25.8018 1.94922C25.1546 1.94922 24.6829 2.19303 24.3867 2.68066C24.0905 3.16829 23.9378 3.91797 23.9287 4.92969V6.95312C23.9287 8.02865 24.0837 8.82389 24.3936 9.33887C24.708 9.84928 25.182 10.1045 25.8154 10.1045C26.4398 10.1045 26.9023 9.86296 27.2031 9.37988C27.5085 8.89681 27.668 8.13574 27.6816 7.09668V5.02539ZM34.7227 11H33.4512V2.57129L30.9014 3.50781V2.35938L34.5244 0.999023H34.7227V11ZM44.4639 3.64453C44.4639 4.14128 44.3317 4.58333 44.0674 4.9707C43.8076 5.35807 43.4544 5.66113 43.0078 5.87988C43.5273 6.10319 43.9375 6.42904 44.2383 6.85742C44.5436 7.28581 44.6963 7.77116 44.6963 8.31348C44.6963 9.1748 44.4046 9.86068 43.8213 10.3711C43.2425 10.8815 42.4792 11.1367 41.5312 11.1367C40.5742 11.1367 39.8063 10.8815 39.2275 10.3711C38.6533 9.85612 38.3662 9.17025 38.3662 8.31348C38.3662 7.77572 38.512 7.29036 38.8037 6.85742C39.0999 6.42448 39.5078 6.09635 40.0273 5.87305C39.5853 5.6543 39.2367 5.35124 38.9814 4.96387C38.7262 4.5765 38.5986 4.13672 38.5986 3.64453C38.5986 2.80599 38.8675 2.14062 39.4053 1.64844C39.943 1.15625 40.6517 0.910156 41.5312 0.910156C42.4062 0.910156 43.1126 1.15625 43.6504 1.64844C44.1927 2.14062 44.4639 2.80599 44.4639 3.64453ZM43.4316 8.28613C43.4316 7.73014 43.2539 7.27669 42.8984 6.92578C42.5475 6.57487 42.0872 6.39941 41.5176 6.39941C40.9479 6.39941 40.4899 6.57259 40.1436 6.91895C39.8018 7.2653 39.6309 7.72103 39.6309 8.28613C39.6309 8.85124 39.7972 9.29557 40.1299 9.61914C40.4671 9.94271 40.9342 10.1045 41.5312 10.1045C42.1237 10.1045 42.5885 9.94271 42.9258 9.61914C43.263 9.29102 43.4316 8.84668 43.4316 8.28613ZM41.5312 1.94922C41.0345 1.94922 40.6312 2.10417 40.3213 2.41406C40.016 2.7194 39.8633 3.13639 39.8633 3.66504C39.8633 4.1709 40.0137 4.58105 40.3145 4.89551C40.6198 5.2054 41.0254 5.36035 41.5312 5.36035C42.0371 5.36035 42.4404 5.2054 42.7412 4.89551C43.0465 4.58105 43.1992 4.1709 43.1992 3.66504C43.1992 3.15918 43.042 2.74674 42.7275 2.42773C42.4131 2.10872 42.0143 1.94922 41.5312 1.94922Z" fill="white"/>
</svg>
